<svg width="30" height="30" viewBox="0 0 41 41" fill="none" xmlns="http://www.w3.org/2000/svg">
<path fill-rule="evenodd" clip-rule="evenodd" d="M20.6906 0.782593C9.44146 0.782593 0.347656 9.91601 0.347656 21.2153C0.347656 30.2474 6.17437 37.8929 14.2576 40.5989C15.2682 40.8023 15.6384 40.1592 15.6384 39.6183C15.6384 39.1446 15.605 37.5209 15.605 35.8292C9.94614 37.0472 8.76772 33.3935 8.76772 33.3935C7.8583 31.0254 6.51082 30.4168 6.51082 30.4168C4.65867 29.1651 6.64574 29.1651 6.64574 29.1651C8.70026 29.3004 9.77833 31.2625 9.77833 31.2625C11.5968 34.3745 14.527 33.4952 15.7058 32.9538C15.874 31.6344 16.4133 30.7211 16.9858 30.2138C12.4724 29.7401 7.7238 27.9811 7.7238 20.1326C7.7238 17.8999 8.53162 16.0732 9.81164 14.6525C9.60969 14.1452 8.90222 12.0474 10.014 9.23972C10.014 9.23972 11.7317 8.69836 15.6046 11.3371C17.2628 10.8898 18.9728 10.6623 20.6906 10.6604C22.4082 10.6604 24.1592 10.8974 25.7761 11.3371C29.6494 8.69836 31.3671 9.23972 31.3671 9.23972C32.4789 12.0474 31.771 14.1452 31.5691 14.6525C32.8828 16.0732 33.6573 17.8999 33.6573 20.1326C33.6573 27.9811 28.9087 29.706 24.3616 30.2138C25.1028 30.8564 25.7423 32.0741 25.7423 34.0025C25.7423 36.7425 25.709 38.9416 25.709 39.6179C25.709 40.1592 26.0796 40.8023 27.0898 40.5993C35.173 37.8925 40.9997 30.2474 40.9997 21.2153C41.033 9.91601 31.9059 0.782593 20.6906 0.782593Z" fill="black"/>
</svg>
