<svg width="30" height="30" viewBox="0 0 41 41" fill="none" xmlns="http://www.w3.org/2000/svg">
<path d="M12.2399 0.741577H29.1201C35.5507 0.741577 40.7755 5.96641 40.7755 12.397V29.2772C40.7755 32.3684 39.5475 35.333 37.3617 37.5188C35.1759 39.7046 32.2113 40.9326 29.1201 40.9326H12.2399C5.80931 40.9326 0.584473 35.7078 0.584473 29.2772V12.397C0.584473 9.30577 1.81245 6.34118 3.99826 4.15536C6.18407 1.96955 9.14867 0.741577 12.2399 0.741577ZM11.838 4.76068C9.91928 4.76068 8.07919 5.52287 6.72248 6.87958C5.36577 8.23629 4.60358 10.0764 4.60358 11.9951V29.6791C4.60358 33.6781 7.83895 36.9135 11.838 36.9135H29.522C31.4407 36.9135 33.2808 36.1513 34.6375 34.7946C35.9942 33.4379 36.7564 31.5978 36.7564 29.6791V11.9951C36.7564 7.99606 33.521 4.76068 29.522 4.76068H11.838ZM31.2301 7.77501C31.8963 7.77501 32.5353 8.03966 33.0063 8.51074C33.4774 8.98182 33.7421 9.62074 33.7421 10.2869C33.7421 10.9532 33.4774 11.5921 33.0063 12.0632C32.5353 12.5342 31.8963 12.7989 31.2301 12.7989C30.5639 12.7989 29.925 12.5342 29.4539 12.0632C28.9828 11.5921 28.7182 10.9532 28.7182 10.2869C28.7182 9.62074 28.9828 8.98182 29.4539 8.51074C29.925 8.03966 30.5639 7.77501 31.2301 7.77501ZM20.68 10.7893C23.3448 10.7893 25.9005 11.8479 27.7848 13.7323C29.6691 15.6166 30.7277 18.1723 30.7277 20.8371C30.7277 23.5019 29.6691 26.0576 27.7848 27.9419C25.9005 29.8263 23.3448 30.8848 20.68 30.8848C18.0152 30.8848 15.4595 29.8263 13.5752 27.9419C11.6908 26.0576 10.6322 23.5019 10.6322 20.8371C10.6322 18.1723 11.6908 15.6166 13.5752 13.7323C15.4595 11.8479 18.0152 10.7893 20.68 10.7893ZM20.68 14.8084C19.0811 14.8084 17.5477 15.4436 16.4171 16.5742C15.2865 17.7048 14.6513 19.2382 14.6513 20.8371C14.6513 22.436 15.2865 23.9694 16.4171 25.1C17.5477 26.2306 19.0811 26.8657 20.68 26.8657C22.2789 26.8657 23.8123 26.2306 24.9429 25.1C26.0735 23.9694 26.7086 22.436 26.7086 20.8371C26.7086 19.2382 26.0735 17.7048 24.9429 16.5742C23.8123 15.4436 22.2789 14.8084 20.68 14.8084Z" fill="black"/>
</svg>
