<svg xmlns="http://www.w3.org/2000/svg" enable-background="new 0 0 24 24" viewBox="0 0 24 24" id="Github"><path fill="#738b95" d="m12 1c-6.354 0-11.5 5.05-11.5 11.279 0 4.984 3.295 9.211 7.863 10.701.575.106.786-.243.786-.542 0-.268-.01-.978-.014-1.917-3.199.681-3.874-1.513-3.874-1.513-.523-1.302-1.279-1.65-1.279-1.65-1.042-.699.08-.685.08-.685 1.155.079 1.761 1.162 1.761 1.162 1.025 1.725 2.692 1.227 3.349.938.104-.729.4-1.227.728-1.509-2.554-.282-5.238-1.252-5.238-5.574 0-1.231.446-2.237 1.184-3.027-.129-.284-.517-1.431.101-2.985 0 0 .963-.303 3.162 1.156 1.775-.484 3.832-.523 5.75 0 2.185-1.459 3.148-1.156 3.148-1.156.618 1.554.23 2.7.115 2.985.733.79 1.179 1.795 1.179 3.027 0 4.333-2.688 5.287-5.247 5.564 1.035.87.762 2.494.762 5.175 0 .296.201.649.791.536 4.601-1.479 7.893-5.709 7.893-10.686 0-6.229-5.149-11.279-11.5-11.279z" class="colorb3b3b3 svgShape"></path><path d="m8.641 23.5c-.104 0-.215-.01-.335-.032-5.007-1.624-8.306-6.113-8.306-11.195 0-6.492 5.383-11.773 12-11.773s12 5.281 12 11.773c0 5.09-3.312 9.574-8.242 11.157-.692.137-1.077-.055-1.296-.236-.29-.24-.457-.605-.457-1.001 0-.492.009-.947.018-1.369.037-1.792.031-2.672-.496-3.115-.23-.193-.323-.505-.235-.792.087-.288.338-.495.637-.527 2.318-.251 4.464-.993 4.464-4.692 0-.944-.32-1.767-.953-2.447-.198-.213-.255-.521-.146-.792.084-.209.306-.901.043-1.886-.37.073-1.068.298-2.125 1.003-.181.121-.404.157-.613.1-1.687-.46-3.544-.46-5.23 0-.208.054-.431.02-.611-.099-1.056-.7-1.755-.928-2.141-.999-.289 1.095.03 1.816.045 1.851.127.276.074.601-.134.823-.634.677-.956 1.5-.956 2.445 0 3.701 2.142 4.447 4.457 4.702.297.033.546.239.634.524.088.286-.001.596-.228.791-.097.083-.115.099-.208.761-.037.257-.204.477-.442.582-1.231.54-2.862.573-3.949-.819.092.178.183.372.267.582.07.201.601 1.522 2.938 1.026.221-.05.45.008.626.149s.279.354.28.58l.014 1.627c0 .396-.167.76-.457 1.002-.174.144-.455.296-.863.296zm-1.58-2.158c.446.231.912.434 1.397.603l-.004-.505c-.525.036-.987-.004-1.393-.098zm8.216-3.637c.293.829.272 1.874.246 3.15-.007.334-.014.69-.017 1.07 4.186-1.422 6.994-5.282 6.994-9.651 0-5.666-4.71-10.274-10.5-10.274s-10.5 4.608-10.5 10.273c0 2.982 1.307 5.732 3.47 7.637-.132-.208-.224-.412-.279-.591-.402-.991-1.002-1.496-1.008-1.501-.179-.116-.892-.594-.671-1.303.141-.452.592-.704 1.232-.698.549.037 1.033.197 1.424.384-.914-.903-1.596-2.307-1.596-4.504 0-1.181.357-2.229 1.062-3.123-.159-.603-.286-1.688.248-3.03.083-.209.257-.371.472-.438.289-.091 1.364-.27 3.45 1.038 1.741-.417 3.62-.417 5.361 0 2.132-1.341 3.231-1.102 3.437-1.037.215.067.389.228.472.438.524 1.314.42 2.385.257 3.025.705.896 1.062 1.946 1.062 3.127 0 4.419-2.763 5.622-4.616 6.008zm-8.425-.639s0 .001.001.002c.449.753 1.104 1.005 1.957.752.004-.027.009-.054.015-.08-.593-.114-1.294-.31-1.973-.674z" fill="#000000" class="color000000 svgShape"></path></svg>