<svg xmlns="http://www.w3.org/2000/svg" enable-background="new 0 0 100 100" viewBox="0 0 100 100" id="Instagram"><g fill="#000000" class="color000000 svgShape"><path fill="#738b95" d="M74.688 19.762c-7.401.226-7.399 10.874 0 11.1C82.089 30.635 82.087 19.987 74.688 19.762zM50 26.187c-13.117 0-23.75 10.661-23.75 23.813 1.251 31.587 46.254 31.579 47.5 0C73.75 36.848 63.117 26.187 50 26.187zM50 65.458c-8.514 0-15.417-6.921-15.417-15.458.812-20.504 30.025-20.498 30.834 0C65.417 58.537 58.514 65.458 50 65.458z" class="colordd2a7b svgShape"></path><path fill="#738b95" d="M95.972,30.931C95.629,14.7,85.303,4.368,69.068,4.029c-3.898-0.376-34.236-0.383-38.137,0
					C14.7,4.371,4.368,14.697,4.028,30.931c-0.376,3.893-0.383,34.24,0,38.137C4.332,85.247,14.751,95.67,30.931,95.971
					c3.898,0.38,34.236,0.38,38.137,0c4.923-0.225,8.285-1.006,11.227-2.15c10.31-4.118,15.348-13.279,15.676-24.753
					C96.348,65.17,96.355,34.832,95.972,30.931z M68.689,87.647c-3.836,0.367-33.54,0.372-37.378,0
					c-4.509-0.206-6.958-0.959-8.588-1.593c-14.07-6.526-9.708-19.725-10.371-37.841c0.014-4.208-0.009-12.695,0.001-16.902
					c0.562-12.545,6.47-18.352,18.958-18.958c3.84-0.367,33.536-0.372,37.378,0c12.548,0.562,18.35,6.47,18.958,18.958
					c0.248,2.998,0.428,19.366,0,27.649C88.109,74.518,87.4,86.734,68.689,87.647z" class="colordd2a7b svgShape"></path><g fill="#000000" class="color000000 svgShape"><path d="M97.214,30.954C96.853,14.058,85.949,3.145,69.048,2.785c-4.018-0.377-34.075-0.383-38.096,0
				C14.058,3.148,3.145,14.05,2.785,30.954c-0.377,4.013-0.384,34.082,0,38.099c0.332,16.854,11.31,27.841,28.167,28.168
				C35.89,97.447,37.531,97.5,50,97.5c12.47,0,14.11-0.053,19.048-0.279c4.607-0.209,8.195-0.899,11.636-2.236
				c10.798-4.147,16.29-14.362,16.53-25.932C97.592,65.041,97.599,34.968,97.214,30.954z M94.31,68.92
				c-0.292,15.376-10.011,25.109-25.395,25.396c-3.924,0.373-33.904,0.379-37.831,0C15.709,94.025,5.978,84.306,5.69,68.92
				c-0.223-4.887-0.276-6.512-0.276-18.917c0.35-19.721-2.294-34.648,14.955-42.271c3.132-1.217,6.437-1.847,10.715-2.043
				C35.971,5.467,37.597,5.415,50,5.415c12.403,0,14.029,0.052,18.916,0.275c4.278,0.195,7.583,0.825,10.716,2.043
				c17.227,7.592,14.613,22.57,14.954,42.27C94.585,62.409,94.532,64.035,94.31,68.92z" fill="#000000" class="color000000 svgShape"></path><path d="M74.59 31.958c3.584 0 6.5-2.927 6.5-6.525-.305-8.635-12.696-8.633-13 0C68.09 29.031 71.007 31.958 74.59 31.958zM74.59 21.628c5.011.16 5.01 7.453 0 7.612C69.579 29.08 69.581 21.787 74.59 21.628zM87.606 67.175c-.828-.033-1.482.585-1.518 1.386-.561 11.685-5.765 16.946-17.485 17.487-3.743.363-33.33.366-37.075 0-16.809-.455-18.153-12.159-17.549-26.548.027-4.018.099-14.328.065-19.687-.008-1.88-2.884-1.932-2.908 0 .05 5.377-.032 15.633-.065 19.657-.189 6.026-.046 14.351 1.75 18.232 6.183 14.108 19.607 10.977 37.245 11.52 21.597-.243 37.34 2.487 38.928-20.529C89.028 67.891 88.407 67.211 87.606 67.175z" fill="#000000" class="color000000 svgShape"></path><path d="M87.11,22.341c-6-13.992-19.782-11.042-37.245-11.519c-21.251-0.008-37.829-1.932-38.928,20.53
						c-0.036,1.915,2.772,2.042,2.905,0.132c0.561-11.685,5.764-16.947,17.485-17.487c3.771-0.365,33.301-0.367,37.076,0
						c11.718,0.528,16.924,5.812,17.486,17.487c0.264,3.085,0.413,19.151-0.001,27.415c-0.035,1.885,2.805,2.025,2.906,0.087
						c0,0,0.27-8.963,0.27-8.963c0-12.316-0.047-13.781-0.271-18.671C88.579,26.647,87.781,24.064,87.11,22.341z" fill="#000000" class="color000000 svgShape"></path><g fill="#000000" class="color000000 svgShape"><path d="M25,50c0,13.785,11.244,25,25.065,25c33.252-1.374,33.242-48.631,0-50C36.244,25,25,36.215,25,50z M72.225,50
						c0,12.187-9.941,22.103-22.16,22.103c-29.4-1.215-29.391-42.997,0-44.207C62.284,27.897,72.225,37.813,72.225,50z" fill="#000000" class="color000000 svgShape"></path><path d="M50.043,66.5c21.946-0.907,21.94-32.097,0-33C40.921,33.5,33.5,40.902,33.5,50C33.5,59.098,40.921,66.5,50.043,66.5z
						 M50.043,36.356c7.543,0,13.679,6.121,13.679,13.644s-6.136,13.645-13.679,13.645C31.895,62.894,31.9,37.103,50.043,36.356z" fill="#000000" class="color000000 svgShape"></path></g></g></g></svg>