<?xml version="1.0" encoding="utf-8"?>
<!-- Generator: Adobe Illustrator 28.2.0, SVG Export Plug-In . SVG Version: 6.00 Build 0)  -->
<svg version="1.1" id="katman_2_00000056398470829631797160000013402553309890257815_"
	 xmlns="http://www.w3.org/2000/svg" xmlns:xlink="http://www.w3.org/1999/xlink" x="0px" y="0px" viewBox="0 0 211 213.6"
	 style="enable-background:new 0 0 211 213.6;" xml:space="preserve">
<style type="text/css">
	.st0{fill:#2C398E;}
	.st1{fill:#19132F;}
	.st2{fill:#374294;}
	.st3{fill:url(#SVGID_1_);}
	.st4{fill:none;stroke:#000000;stroke-width:7;stroke-miterlimit:10;}
</style>
<path class="st0" d="M62.2,7.3c4.6-0.2,9.8,2.6,7.8,7.2c-1.2,2.7-25.8,11.8-42,41c-41.1,74.2,27.6,153,106.8,124.2
	c17.4-6.3,31.6-18.1,43.2-32.2c1.9-2.3,4.1-8.6,6.8-7.8c5.6,1.7-11,24.6-13.2,27.2C127.6,218.3,43,205.7,11.9,149.6
	C-8,113.5-2.3,65.3,24.3,34.4c6.3-7.4,14.1-13.2,22.7-17.8C53.3,13.2,61.3,7.4,62.2,7.3z"/>
<path class="st1" d="M159.2,65.3c1.4-0.4,6.5,0.3,9,0c2.7,1.6-21.5,21.6-21.2,24.2l27.5,44c-0.4,1.1-8.1,1-9,0.5
	c-2.1-1.1-20.2-35.2-25.2-38.8l-14.2,15.8c-1.3,5.9,0.2,22.1-0.5,23c-0.2,0.3-6.9,0.5-7.2,0.2c-2.8-2,1.6-59.9-0.2-67.8h8l-0.5,34
	c0.2,0.3,0.9,0.3,1.2,0.2C129,100.2,155.4,66.4,159.2,65.3z"/>
<path class="st2" d="M198.2,100.8c4.6-1.1,3.8,8.9,1,9.5C194.3,111.4,195.6,101.4,198.2,100.8z"/>
<linearGradient id="SVGID_1_" gradientUnits="userSpaceOnUse" x1="119.9894" y1="177.7974" x2="184.9294" y2="161.2874" gradientTransform="matrix(1 0 0 -1 0 213.8898)">
	<stop  offset="0" style="stop-color:#272251"/>
	<stop  offset="1" style="stop-color:#2C398E"/>
</linearGradient>
<path class="st3" d="M200.4,91.8c-0.9,1-3.6-0.2-4.5-1c-3.6-3.2-6.5-29.8-32.8-53c-9.9-8.7-21.1-15.2-33.5-19.5
	c-14.4-5-15,2.2-15.2-17.2c1.5-4.1,24.4,4.6,28.2,6.2C175.6,21.5,200.8,55.4,200.4,91.8z"/>
<path class="st4" d="M61.7,65.1c33-3.7,42.5,13.4,39.8,43.8c-3.2,35.4-47.9,33.2-59.5,16c-6-8.9-6.4-33.4-3-43
	C42.1,72.7,52.4,66.1,61.7,65.1z"/>
</svg>
