<svg xmlns="http://www.w3.org/2000/svg" fill-rule="evenodd" stroke-linejoin="round" stroke-miterlimit="2" clip-rule="evenodd" viewBox="0 0 64 64" id="medium"><path fill="none" d="M0 0h64v64H0z"></path><circle cx="660" cy="192" r="16" fill="#738b95" transform="translate(-640 -160)"></circle><circle cx="660" cy="192" r="16" fill="#738b95" transform="matrix(.4375 0 0 .9375 -243.75 -148)"></circle><circle cx="660" cy="192" r="16" fill="#738b95" transform="matrix(.1875 0 0 .875 -66.75 -136)"></circle><path fill="#617881" d="M58.59 43.87C58.129 45.22 57.584 46 57 46c-1.656 0-3-6.273-3-14s1.344-14 3-14c.139 0 .276.044.41.13C56.563 20.606 56 24.998 56 30c0 7.079 1.128 12.937 2.59 13.87zM9.733 19.733A15.926 15.926 0 0 0 6 30c0 8.831 7.169 16 16 16 3.907 0 7.488-1.403 10.267-3.733A15.966 15.966 0 0 1 20 48c-8.831 0-16-7.169-16-16 0-4.924 2.229-9.331 5.733-12.267zm33.349-2.162C41.223 20.269 40 24.831 40 30c0 8.279 3.137 15 7 15 .665 0 1.308-.199 1.918-.571C47.8 46.052 46.451 47 45 47c-3.863 0-7-6.721-7-15 0-6.854 2.15-12.64 5.082-14.429z"></path><path d="M20 15.5c-9.107 0-16.5 7.393-16.5 16.5S10.893 48.5 20 48.5 36.5 41.107 36.5 32 29.107 15.5 20 15.5Zm0 1c8.555 0 15.5 6.945 15.5 15.5S28.555 47.5 20 47.5 4.5 40.555 4.5 32 11.445 16.5 20 16.5ZM45 16.5c-1.692 0-3.286 1.135-4.555 3.127C38.668 22.419 37.5 26.922 37.5 32c0 5.078 1.168 9.581 2.945 12.373C41.714 46.365 43.308 47.5 45 47.5c1.692 0 3.286-1.135 4.555-3.127C51.332 41.581 52.5 37.078 52.5 32c0-5.078-1.168-9.581-2.945-12.373C48.286 17.635 46.692 16.5 45 16.5Zm0 1c1.4 0 2.662 1.016 3.711 2.664 1.7 2.67 2.789 6.98 2.789 11.836 0 4.855-1.09 9.167-2.789 11.836C47.662 45.484 46.4 46.5 45 46.5c-1.4 0-2.662-1.016-3.711-2.664-1.7-2.67-2.789-6.98-2.789-11.836 0-4.855 1.09-9.167 2.789-11.836C42.338 18.516 43.6 17.5 45 17.5ZM57 17.5c-.312 0-.624.124-.919.394-.322.295-.639.795-.921 1.479C54.182 21.74 53.5 26.508 53.5 32c0 5.492.682 10.26 1.66 12.627.282.684.6 1.184.921 1.479.295.27.607.394.919.394.312 0 .624-.124.919-.394.322-.295.639-.795.921-1.479.978-2.367 1.66-7.135 1.66-12.627 0-5.492-.682-10.26-1.66-12.627-.282-.684-.6-1.184-.921-1.479-.295-.27-.607-.394-.919-.394Zm0 1c.125 0 .227.101.343.235.203.234.392.58.573 1.02.948 2.294 1.584 6.92 1.584 12.245 0 5.325-.636 9.95-1.584 12.246-.181.439-.37.785-.573 1.019-.116.134-.218.235-.343.235-.125 0-.227-.101-.343-.235-.203-.234-.392-.58-.573-1.02C55.136 41.952 54.5 37.326 54.5 32c0-5.325.636-9.95 1.584-12.246.181-.439.37-.785.573-1.019.116-.134.218-.235.343-.235Z"></path></svg>